<svg width="643" height="149" viewBox="0 0 643 149" fill="none" xmlns="http://www.w3.org/2000/svg">
<path fill-rule="evenodd" clip-rule="evenodd" d="M48.7536 76.7614L24.8266 52.9169L48.7536 29.0725L67.8233 48.09L72.6738 52.9169L48.7536 76.7614Z" fill="#78349C"/>
<path fill-rule="evenodd" clip-rule="evenodd" d="M70.8194 102.459H70.8055L72.6669 100.606L70.8194 102.459Z" fill="#4493D6"/>
<mask id="mask0_114_278" style="mask-type:luminance" maskUnits="userSpaceOnUse" x="89" y="2" width="8" height="8">
<path d="M89.896 2.50339H96.5939V9.58479H89.896V2.50339Z" fill="white"/>
</mask>
<g mask="url(#mask0_114_278)">
<path fill-rule="evenodd" clip-rule="evenodd" d="M95.9367 6.36912L92.9475 3.39548L89.9584 6.36912L92.9475 9.34967L95.9367 6.36912Z" fill="#EA038C"/>
</g>
<mask id="mask1_114_278" style="mask-type:luminance" maskUnits="userSpaceOnUse" x="70" y="0" width="15" height="14">
<path d="M70.4111 0H84.5819V13.1255H70.4111V0Z" fill="white"/>
</mask>
<g mask="url(#mask1_114_278)">
<path fill-rule="evenodd" clip-rule="evenodd" d="M83.98 6.36913L77.9947 0.40802L72.0164 6.36913L77.9947 12.3371L83.98 6.36913Z" fill="#EA038C"/>
</g>
<mask id="mask2_114_278" style="mask-type:luminance" maskUnits="userSpaceOnUse" x="47" y="52" width="50" height="50">
<path d="M47.3836 52.0732H96.5939V101.643H47.3836V52.0732Z" fill="white"/>
</mask>
<g mask="url(#mask2_114_278)">
<path fill-rule="evenodd" clip-rule="evenodd" d="M72.6738 52.9169L48.7536 76.7614L72.6738 100.606L96.5939 76.7614L72.6738 52.9169Z" fill="#4493D6"/>
</g>
<mask id="mask3_114_278" style="mask-type:luminance" maskUnits="userSpaceOnUse" x="47" y="16" width="50" height="38">
<path d="M47.3836 16.6662H96.5939V53.8436H47.3836V16.6662Z" fill="white"/>
</mask>
<g mask="url(#mask3_114_278)">
<path fill-rule="evenodd" clip-rule="evenodd" d="M84.6373 40.9947L96.5939 29.0725L84.6373 17.1572L72.6738 29.0725L60.7172 17.1572L48.7536 29.0725L63.5264 43.8024L67.8233 48.0899L72.6738 52.9169L84.6373 40.9947Z" fill="#EA038C"/>
</g>
<path fill-rule="evenodd" clip-rule="evenodd" d="M24.8266 100.606L0.913342 76.7614L24.8266 52.9169L48.7536 76.7614L24.8266 100.606Z" fill="#1C1B1A"/>
<mask id="mask4_114_278" style="mask-type:luminance" maskUnits="userSpaceOnUse" x="47" y="99" width="50" height="50">
<path d="M47.3836 99.8727H96.5939V148.71H47.3836V99.8727Z" fill="white"/>
</mask>
<g mask="url(#mask4_114_278)">
<path fill-rule="evenodd" clip-rule="evenodd" d="M72.6669 100.606L48.7536 124.457L72.6669 148.295L96.5939 124.457L72.6669 100.606Z" fill="#FACC08"/>
</g>
<path fill-rule="evenodd" clip-rule="evenodd" d="M48.7536 76.7683L24.8266 100.606L48.7536 124.457L72.6669 100.606L48.7536 76.7683Z" fill="#F58514"/>
<path d="M140.884 29.4764C144.427 29.4764 147.499 30.0711 150.101 31.2467C152.716 32.4293 154.73 34.1097 156.134 36.2812C157.553 38.4595 158.265 41.0321 158.265 43.9988C158.265 46.9309 157.553 49.4966 156.134 51.6888C154.73 53.8879 152.716 55.5614 150.101 56.7232C147.499 57.885 144.427 58.4659 140.884 58.4659H132.802V69.5029H123.558V29.4764H140.884ZM140.358 50.9142C143.14 50.9142 145.257 50.3195 146.696 49.1162C148.149 47.9198 148.883 46.2117 148.883 43.9988C148.883 41.7513 148.149 40.0293 146.696 38.826C145.257 37.6297 143.14 37.028 140.358 37.028H132.802V50.9142H140.358Z" fill="black"/>
<path d="M199.912 60.9278H181.34L177.798 69.5029H168.277L186.129 29.4764H195.29L213.197 69.5029H203.482L199.912 60.9278ZM197.006 53.9017L190.668 38.5771L184.302 53.9017H197.006Z" fill="black"/>
<path d="M242.839 29.4764C246.382 29.4764 249.454 30.0711 252.056 31.2467C254.672 32.4293 256.685 34.1097 258.09 36.2812C259.508 38.4595 260.221 41.0321 260.221 43.9988C260.221 46.9309 259.508 49.4966 258.09 51.6888C256.685 53.8879 254.672 55.5614 252.056 56.7232C249.454 57.885 246.382 58.4659 242.839 58.4659H234.758V69.5029H225.513V29.4764H242.839ZM242.314 50.9142C245.095 50.9142 247.212 50.3195 248.652 49.1162C250.105 47.9198 250.838 46.2117 250.838 43.9988C250.838 41.7513 250.105 40.0293 248.652 38.826C247.212 37.6297 245.095 37.028 242.314 37.028H234.758V50.9142H242.314Z" fill="black"/>
<path d="M306.517 62.0619V69.5029H275.519V29.4764H305.77V36.9174H284.707V45.6032H303.307V52.7952H284.707V62.0619H306.517Z" fill="black"/>
<path d="M347.525 69.5029L339.803 58.3552H331.278V69.5029H322.034V29.4764H339.36C342.903 29.4764 345.975 30.0711 348.576 31.2467C351.192 32.4293 353.205 34.1097 354.61 36.2812C356.028 38.4595 356.741 41.0321 356.741 43.9988C356.741 46.9724 356.022 49.5311 354.582 51.6888C353.157 53.8464 351.137 55.4992 348.521 56.6402L357.488 69.5029H347.525ZM347.359 43.9988C347.359 41.7513 346.625 40.0293 345.172 38.826C343.733 37.6297 341.616 37.028 338.834 37.028H331.278V50.9696H338.834C341.616 50.9696 343.733 50.361 345.172 49.1439C346.625 47.9268 347.359 46.2117 347.359 43.9988Z" fill="black"/>
<path d="M413.854 29.4764C417.396 29.4764 420.469 30.0711 423.07 31.2467C425.686 32.4293 427.699 34.1097 429.104 36.2812C430.522 38.4595 431.235 41.0321 431.235 43.9988C431.235 46.9309 430.522 49.4966 429.104 51.6888C427.699 53.8879 425.686 55.5614 423.07 56.7232C420.469 57.885 417.396 58.4659 413.854 58.4659H405.772V69.5029H396.528V29.4764H413.854ZM413.328 50.9142C416.109 50.9142 418.227 50.3195 419.666 49.1162C421.119 47.9198 421.853 46.2117 421.853 43.9988C421.853 41.7513 421.119 40.0293 419.666 38.826C418.227 37.6297 416.109 37.028 413.328 37.028H405.772V50.9142H413.328Z" fill="black"/>
<path d="M471.747 69.5029L462.088 55.6167L452.594 69.5029H441.938L456.774 49.1439L442.686 29.4764H453.203L462.42 42.4497L471.47 29.4764H481.462L467.512 48.8119L482.458 69.5029H471.747Z" fill="black"/>
<path d="M495.508 29.4764H504.752V69.5029H495.508V29.4764Z" fill="black"/>
<path d="M553.399 62.0619V69.5029H522.4V29.4764H552.651V36.9174H531.589V45.6032H550.188V52.7952H531.589V62.0619H553.399Z" fill="black"/>
<path d="M568.915 29.4764H578.159V61.9513H598.253V69.5029H568.915V29.4764Z" fill="black"/>
<path d="M624.744 70.1945C621.568 70.1945 618.503 69.7657 615.555 68.922C612.6 68.0576 610.227 66.9304 608.442 65.5473L611.597 58.5765C613.313 59.8351 615.347 60.8448 617.714 61.6193C620.073 62.38 622.433 62.7535 624.799 62.7535C627.436 62.7535 629.38 62.3662 630.639 61.5917C631.892 60.8033 632.521 59.7591 632.521 58.4659C632.521 57.5116 632.141 56.7163 631.386 56.087C630.646 55.4646 629.698 54.9667 628.536 54.5932C627.373 54.206 625.803 53.7841 623.831 53.3208C620.786 52.6016 618.281 51.8824 616.33 51.1632C614.393 50.4302 612.718 49.2684 611.32 47.6778C609.937 46.0734 609.245 43.9366 609.245 41.2603C609.245 38.9367 609.867 36.8344 611.127 34.9534C612.379 33.0586 614.268 31.551 616.801 30.4445C619.347 29.3381 622.454 28.7848 626.128 28.7848C628.674 28.7848 631.165 29.0891 633.601 29.6977C636.05 30.3062 638.195 31.1845 640.022 32.3255L637.171 39.3793C633.462 37.277 629.76 36.2258 626.072 36.2258C623.471 36.2258 621.547 36.6546 620.316 37.4983C619.077 38.3281 618.461 39.4277 618.461 40.79C618.461 42.1731 619.167 43.1966 620.592 43.8605C622.032 44.5244 624.218 45.1813 627.152 45.8245C630.196 46.5644 632.687 47.2905 634.625 48.0098C636.576 48.729 638.25 49.8769 639.634 51.4398C641.032 53.0096 641.738 55.1188 641.738 57.7743C641.738 60.0634 641.087 62.1587 639.8 64.0536C638.527 65.9346 636.604 67.4283 634.043 68.5348C631.497 69.6412 628.397 70.1945 624.744 70.1945Z" fill="black"/>
<path d="M182.639 102.938C184.189 102.938 185.525 103.201 186.653 103.713C187.794 104.231 188.673 104.971 189.282 105.925C189.905 106.866 190.223 107.986 190.223 109.273C190.223 110.566 189.905 111.693 189.282 112.647C188.673 113.588 187.794 114.321 186.653 114.833C185.525 115.33 184.189 115.579 182.639 115.579H179.124V120.393H175.083V102.938H182.639ZM182.418 112.288C183.615 112.288 184.528 112.032 185.158 111.513C185.801 110.981 186.127 110.234 186.127 109.273C186.127 108.297 185.801 107.551 185.158 107.032C184.528 106.499 183.615 106.23 182.418 106.23H179.124V112.288H182.418Z" fill="#121212"/>
<path d="M215.689 120.393L212.312 115.524H208.603V120.393H204.563V102.938H212.118C213.668 102.938 215.004 103.201 216.132 103.713C217.273 104.231 218.152 104.971 218.761 105.925C219.384 106.866 219.702 107.986 219.702 109.273C219.702 110.566 219.384 111.679 218.761 112.62C218.131 113.56 217.246 114.279 216.104 114.777L220.006 120.393H215.689ZM215.606 109.273C215.606 108.297 215.281 107.551 214.637 107.032C214.007 106.499 213.094 106.23 211.897 106.23H208.603V112.315H211.897C213.094 112.315 214.007 112.053 214.637 111.513C215.281 110.981 215.606 110.234 215.606 109.273Z" fill="#121212"/>
<path d="M234.116 102.938H238.157V120.393H234.116V102.938Z" fill="#121212"/>
<path d="M269.53 102.938V120.393H266.208L257.518 109.798V120.393H253.532V102.938H256.881L265.544 113.532V102.938H269.53Z" fill="#121212"/>
<path d="M288.502 106.23H282.939V102.938H298.134V106.23H292.543V120.393H288.502V106.23Z" fill="#121212"/>
<path d="M311.544 102.938H315.585V120.393H311.544V102.938Z" fill="#121212"/>
<path d="M346.957 102.938V120.393H343.636L334.945 109.798V120.393H330.96V102.938H334.309L342.972 113.532V102.938H346.957Z" fill="#121212"/>
<path d="M374.122 111.402H377.804V118.484C376.862 119.189 375.762 119.729 374.51 120.116C373.271 120.503 372.019 120.697 370.746 120.697C368.933 120.697 367.3 120.31 365.847 119.535C364.408 118.76 363.273 117.696 362.443 116.326C361.626 114.943 361.225 113.394 361.225 111.679C361.225 109.95 361.626 108.401 362.443 107.032C363.273 105.649 364.415 104.57 365.875 103.795C367.348 103.021 369.002 102.634 370.829 102.634C372.358 102.634 373.742 102.896 374.98 103.408C376.233 103.927 377.285 104.681 378.136 105.676L375.534 108.055C374.295 106.748 372.794 106.091 371.023 106.091C369.915 106.091 368.926 106.327 368.061 106.783C367.189 107.246 366.518 107.903 366.041 108.747C365.556 109.598 365.321 110.573 365.321 111.679C365.321 112.751 365.556 113.712 366.041 114.556C366.518 115.407 367.182 116.07 368.033 116.548C368.898 117.011 369.874 117.239 370.967 117.239C372.144 117.239 373.195 116.99 374.122 116.492V111.402Z" fill="#121212"/>
<path d="M416.807 120.697C415.423 120.697 414.08 120.51 412.793 120.144C411.52 119.756 410.482 119.272 409.694 118.678L411.077 115.635C411.811 116.188 412.697 116.631 413.734 116.962C414.765 117.294 415.796 117.46 416.834 117.46C417.976 117.46 418.827 117.294 419.381 116.962C419.934 116.617 420.211 116.153 420.211 115.579C420.211 115.178 420.045 114.833 419.713 114.556C419.381 114.279 418.952 114.058 418.44 113.892C417.941 113.726 417.263 113.546 416.419 113.339C415.091 113.028 413.997 112.716 413.153 112.398C412.302 112.087 411.576 111.582 410.967 110.877C410.358 110.178 410.053 109.245 410.053 108.083C410.053 107.073 410.316 106.161 410.856 105.345C411.41 104.515 412.24 103.865 413.347 103.381C414.454 102.883 415.81 102.634 417.415 102.634C418.523 102.634 419.602 102.772 420.654 103.049C421.719 103.311 422.66 103.685 423.477 104.183L422.231 107.253C420.605 106.354 418.993 105.898 417.388 105.898C416.239 105.898 415.402 106.085 414.869 106.451C414.329 106.804 414.067 107.281 414.067 107.889C414.067 108.484 414.371 108.927 414.98 109.217C415.603 109.515 416.564 109.798 417.858 110.075C419.187 110.393 420.273 110.704 421.124 111.015C421.968 111.333 422.702 111.831 423.311 112.509C423.92 113.194 424.224 114.113 424.224 115.275C424.224 116.271 423.934 117.184 423.366 118.014C422.813 118.843 421.982 119.5 420.875 119.978C419.768 120.455 418.412 120.697 416.807 120.697Z" fill="#121212"/>
<path d="M451.722 117.156V120.393H438.215V102.938H451.389V106.174H442.228V109.964H450.338V113.118H442.228V117.156H451.722Z" fill="#121212"/>
<path d="M477.301 120.393L473.924 115.524H470.216V120.393H466.175V102.938H473.731C475.281 102.938 476.616 103.201 477.744 103.713C478.886 104.231 479.764 104.971 480.373 105.925C480.996 106.866 481.314 107.986 481.314 109.273C481.314 110.566 480.996 111.679 480.373 112.62C479.744 113.56 478.858 114.279 477.716 114.777L481.619 120.393H477.301ZM477.218 109.273C477.218 108.297 476.893 107.551 476.249 107.032C475.62 106.499 474.706 106.23 473.509 106.23H470.216V112.315H473.509C474.706 112.315 475.62 112.053 476.249 111.513C476.893 110.981 477.218 110.234 477.218 109.273Z" fill="#121212"/>
<path d="M512.501 102.938L504.945 120.393H500.96L493.431 102.938H497.804L503.091 115.413L508.488 102.938H512.501Z" fill="#121212"/>
<path d="M525.556 102.938H529.597V120.393H525.556V102.938Z" fill="#121212"/>
<path d="M553.331 120.697C551.539 120.697 549.926 120.31 548.487 119.535C547.048 118.76 545.913 117.696 545.083 116.326C544.266 114.943 543.865 113.394 543.865 111.679C543.865 109.95 544.266 108.401 545.083 107.032C545.913 105.649 547.048 104.57 548.487 103.795C549.926 103.021 551.546 102.634 553.358 102.634C554.867 102.634 556.237 102.903 557.455 103.436C558.672 103.975 559.697 104.736 560.527 105.732L557.925 108.138C556.742 106.776 555.282 106.091 553.552 106.091C552.459 106.091 551.49 106.333 550.646 106.811C549.795 107.274 549.131 107.931 548.653 108.775C548.19 109.625 547.961 110.593 547.961 111.679C547.961 112.751 548.19 113.712 548.653 114.556C549.131 115.407 549.795 116.07 550.646 116.548C551.49 117.011 552.459 117.239 553.552 117.239C555.282 117.239 556.742 116.561 557.925 115.192L560.527 117.571C559.697 118.588 558.659 119.362 557.427 119.895C556.209 120.427 554.839 120.697 553.331 120.697Z" fill="#121212"/>
<path d="M587.983 117.156V120.393H574.476V102.938H587.651V106.174H578.49V109.964H586.599V113.118H578.49V117.156H587.983Z" fill="#121212"/>
</svg>
